<svg xmlns="http://www.w3.org/2000/svg" xmlns:xlink="http://www.w3.org/1999/xlink" id="Layer_1" x="0" y="0" baseProfile="tiny" version="1.2" viewBox="0 0 595.3 145.4" xml:space="preserve"><g><g><polygon fill="#F6C82F" points="56.9 43.9 107.4 43.9 107.4 43.9 101.5 33.5 62.7 33.5 56.9 43.9"/><polygon fill="#F9A137" points="113.4 33.5 101.5 33.5 107.4 43.9"/><polygon fill="#DC9535" points="56.9 43.9 62.7 33.5 50.9 33.5"/><polygon fill="#763467" points="82.3 100.1 89.2 107.8 121.1 72.5 107.3 72.5"/><polygon fill="#9B286C" points="117.3 61.4 107.3 72.5 121.1 72.5 122.6 70.8"/><polygon fill="#168DCD" points="82.3 100.1 82.1 100.2 57.2 72.5 43.3 72.5 75.3 107.8 82.3 100.1"/><polygon fill="#00B3E4" points="47.1 61.2 41.7 70.7 43.3 72.5 57.2 72.5"/><polygon fill="#63539F" points="89.2 107.8 89.2 107.8 82.3 100.1 75.3 107.8 75.3 107.8"/><polygon fill="#C33083" points="122.6 70.8 129.9 62.6 129.6 62.1 117.3 61.4"/><polygon fill="#10907B" points="34.7 62.1 34.4 62.6 41.7 70.7 47.1 61.2"/><polygon fill="#7253A1" points="75.3 107.8 82.3 115.5 89.2 107.8"/><polygon fill="#5BA354" points="45 43.9 44.9 43.9 34.7 62.1 47.1 61.2 47.1 61.2 47.1 61.2 47.1 61.2 56.9 43.9"/><polygon fill="#AE9B4F" points="56.9 43.9 56.9 43.9 56.9 43.9 50.9 33.5 50.8 33.5 45 43.9"/><polygon fill="#BE2C37" points="119.3 43.9 119.3 43.9 107.4 43.9 117.3 61.4 117.3 61.4 129.6 62.1"/><polygon fill="#DF6232" points="107.4 43.9 119.3 43.9 113.4 33.5 113.4 33.5 107.4 43.9 107.4 43.9"/></g><g><path fill="#fff" d="M172.2,62.7c3.1,0,6,0.4,8.8,1.4V49.7h5.1v38.4c0,2.6-1.1,11.2-14.6,11.2c-5.8,0-15.6-2.4-15.6-18.8 C156,65.7,164.8,62.7,172.2,62.7z M171.6,94.6c6.3,0,9.4-2.1,9.4-6.3V69.1c-2.8-1.1-5.8-1.8-8.8-1.8c-7.7,0-11.1,4-11.1,13.1 C161.2,93.2,167.1,94.6,171.6,94.6z"/><path fill="#fff" d="M224.8,81.5c0,1.4-0.1,2.5-0.1,2.5h-25.9c0.6,7.1,4.2,10.2,11.5,10.2c5.2,0,9.2-0.9,12.1-2.6v5.3 c-3.4,1.6-7.6,2.5-12.6,2.5c-7.4,0-16.2-3.1-16.2-17.8c0-3.8-0.6-18.8,15.6-18.8C225.3,62.6,224.8,80.2,224.8,81.5z M219.5,79.4 c0-1.7-0.6-12-10.4-12c-7,0-9.9,3.3-10.4,12H219.5z"/><path fill="#fff" d="M254.3,89.4c0,6.2-4.9,9.9-13,9.9c-4.7,0-8.2-1.3-10.7-2.7v-5.4c3.1,1.9,6.8,3.1,10.5,3.1c3.7,0,8.1-0.9,8.1-4.9 c0-9.5-19-4.1-19-16.5c0-5,3.3-10.3,12.6-10.3c3.7,0,6.7,1.1,9.1,2.2v5.1c-1.9-1.1-4.8-2.4-8.5-2.4c-3.6,0-8,0.9-8,5.4 C235.3,79.9,254.3,75.5,254.3,89.4z"/><path fill="#fff" d="M266.7,56.9H261v-5.6h5.7V56.9z M266.4,63.2h-5.1v35.5h5.1V63.2z"/><path fill="#fff" d="M281.2,69.4v29.3H276V66.1c1.8-0.8,8.7-3.4,17.2-3.4v4.9C288.3,67.7,284.1,68.6,281.2,69.4z"/><path fill="#fff" d="M327.8,81.5c0,1.4-0.1,2.5-0.1,2.5h-25.9c0.6,7.1,4.2,10.2,11.5,10.2c5.2,0,9.2-0.9,12.1-2.6v5.3 c-3.4,1.6-7.6,2.5-12.6,2.5c-7.4,0-16.2-3.1-16.2-17.8c0-3.8-0.6-18.8,15.6-18.8C328.3,62.6,327.8,80.2,327.8,81.5z M322.6,79.4 c0-1.7-0.6-12-10.4-12c-7,0-9.9,3.3-10.4,12H322.6z"/><path fill="#fff" d="M364.9,90.2v8.5h-31.3v-7c7.5-5.5,22.2-18,22.2-26.9c0-2.8-1.9-5.7-8.4-5.7c-4.8,0-10.1,1.8-13.4,4.1v-8.5 c3.5-2.1,8.2-4.2,13.7-4.2c12.1,0,16.5,7.4,16.5,14.2c0,9.3-8.7,19-16.4,25.4H364.9z"/><path fill="#fff" d="M406,77.7v7.6h-6.2v13.4h-8.5V85.3h-21.2v-7l21.6-27h8.1v26.4H406z M391.2,77.7V63.2L380,77.7H391.2z"/><path fill="#fff" d="M423,98.7h-8.3v-7.9h8.3V98.7z"/><path fill="#fff" d="M449.8,91.9c3.3,0,6.2-0.7,8.8-1.8v7.1c-3.1,1.2-6.5,2-10.2,2c-10.8,0-16.8-6.5-16.8-18.3c0-11.8,6-18.3,16.8-18.3 c3.8,0,7.2,0.8,10.2,2v7.1c-2.6-1.1-5.5-1.7-8.8-1.7c-6,0-9.7,1.8-9.7,10.9C440.1,90.1,443.8,91.9,449.8,91.9z"/><path fill="#fff" d="M496.6,81c0,11.8-6,18.3-16.8,18.3c-10.8,0-16.8-6.5-16.8-18.3c0-11.8,6-18.3,16.8-18.3C490.6,62.7,496.6,69.2,496.6,81z M488.1,81c0-9.4-3.2-11.2-8.2-11.2c-5,0-8.2,1.8-8.2,11.2s3.2,11.2,8.2,11.2C484.9,92.2,488.1,90.4,488.1,81z"/><path fill="#fff" d="M557.5,77.4v21.3H549V76.8c0-4.1-1.4-6.9-8.1-6.9c-2.7,0-5.2,0.4-7.2,0.9c0,0,1.5,1.7,1.5,6.6v21.3h-8.5V76.6 c0-3.9-1.4-6.5-8-6.5c-2.1,0-4.1,0.2-5.9,0.6v28.1h-8.5v-32c0.3-0.1,7-4,15.6-4c3.9,0,7.1,0.9,9.6,2.6c2.8-1.1,7.4-2.6,12.8-2.6 C551.8,62.7,557.5,68.1,557.5,77.4z"/></g></g></svg>